<svg id="Layer_2" xmlns="http://www.w3.org/2000/svg" width="240.1" height="240.1" viewBox="0 0 240.1 240.1"><style>.st0{fill:#919395;}</style><path class="st0" d="M0 120c0 66.2 53.8 120 120 120s120-53.8 120-120S186.2 0 120 0 0 53.8 0 120m3.1 0c0-64.5 52.5-117 117-117s117 52.5 117 117-52.5 117-117 117c-64.6 0-117-52.5-117-117"/><path class="st0" d="M5.6 120C5.6 183.1 57 234.4 120 234.4c63.1 0 114.4-51.3 114.4-114.4C234.4 57 183.1 5.6 120 5.6 57 5.6 5.6 57 5.6 120m1.2 0C6.8 57.6 57.6 6.8 120 6.8c62.4 0 113.2 50.8 113.2 113.2 0 62.4-50.8 113.2-113.2 113.2C57.6 233.3 6.8 182.5 6.8 120"/><path class="st0" d="M36 120c0 46.3 37.7 84 84 84s84-37.7 84-84-37.7-84-84-84-84 37.7-84 84m1.2 0c0-45.7 37.2-82.9 82.9-82.9S203 74.3 203 120s-37.2 82.9-82.9 82.9c-45.8 0-82.9-37.2-82.9-82.9"/><path class="st0" d="M39.9 120c0 44.2 35.9 80.1 80.1 80.1 44.2 0 80.1-35.9 80.1-80.1 0-44.2-35.9-80.1-80.1-80.1-44.1 0-80.1 36-80.1 80.1m3.1 0c0-42.5 34.6-77 77-77 42.5 0 77 34.6 77 77 0 42.5-34.6 77-77 77-42.4.1-77-34.5-77-77"/><path class="st0" d="M31.8 58.6L40 48.3c2.1-2.6 3.4-2.9 6-.8l7.4 5.8c2.6 2.1 2.6 3.5.6 6.1l-1.2 1.5 5 1.1-2.5 3.2-4.8-1.3-4.5 5.7c-2.1 2.6-3.4 2.9-6 .8l-7.3-5.8c-2.9-2-2.9-3.4-.9-6m15 4.4l-4.1-1.1.9-3.1 5.5 1.3 2.4-3-8.8-7-8.5 10.7 8.8 7 3.8-4.8zm21.7-20.4l10.2-5.9-7.2-12.5 3.6-2.1 6.8 11.8c1.7 2.9 1.2 4.2-1.7 5.9l-9.7 5.6c-2.9 1.7-4.3 1.5-5.9-1.4l-6.8-11.8 3.6-2.1 7.1 12.5zm31.8-28l3.9-.7 13 15.9-4.6.8-2.7-3.5-11.1 1.8-1.4 4.2-4.1.7 7-19.2zm7.4 9.6l-5-6.5-2.7 7.8 7.7-1.3zM130.5 13l4.1.7-2.4 14.3 13.2 2.1-.5 3.3-17.3-2.8zm24.707 24.69l7.38-16.2 3.73 1.7-7.38 16.2zM177.9 51.8l-3.2-2.6 9.2-11.4-6.4-5.1 2-2.5 16 12.9-2 2.5-6.4-5.2zM200 64.3l3.1-13.1 3 4.6-2.3 8.9 9.1 1.3 2.7 4-13.2-2.2-6.7 4.4-2.3-3.4zM27.3 111l-11.3-.3-.4 12.9 4 .1.2-6.8 3 .1-.3 10.8-6.1-.2c-3.3-.1-4.2-1.2-4.1-4.5l.3-12.3c.1-3.3 1-4.4 4.3-4.3l9.4.3c3.3.1 4.2 1.2 4.1 4.5l-.3 12.3c-.1 3.2-.9 4.4-4.2 4.3h-.4l-.6-4.1 2 .1.4-12.9zm-7.4 38.6l4 11.1 13.6-4.9 1.4 3.9-12.8 4.6c-3.1 1.1-4.3.4-5.4-2.7L16.8 151c-1.1-3.1-.7-4.4 2.5-5.6l12.8-4.6 1.4 3.9-13.6 4.9zm29.4 25.7l2.5 3.1-7.3 19.2-3-3.6 1.7-4.1-7.2-8.7-4.3.9-2.6-3.2 20.2-3.6zm-4.7 11.2l3.2-7.6-8.1 1.5 4.9 6.1zm21.5 5.9l13.1 7.8c2.3 1.4 2.9 2.9 1.7 5l-2.1 3.6c-1.3 2.1-2.9 2.3-5.2.9l-2-1.2 3.6 10-5.1-3-2.7-9.5-3.4-2-3.4 5.8-3.5-2.1 9-15.3zm1.9 4.7l-2.6 4.3 8 4.8c1.1.7 1.7.7 2.3-.3l1.1-1.8c.6-1 .2-1.5-.9-2.2l-7.9-4.8zm33.4 10.8l3.9.7 6.8 19.4-4.6-.9-1.4-4.2-11.1-2.1-2.8 3.5-4.1-.8 13.3-15.6zm3.6 11.5l-2.4-7.8-5.2 6.4 7.6 1.4zm20.5-9.2l2.8-.5 14.2 8.1c.8.5 1.6.9 2.3 1.5-.4-1.4-.6-2.5-.7-3l-1.6-9.2 3.7-.7 3.1 17.5-2.8.5-14.8-8.6c-.6-.4-1.1-.7-1.7-1.2.4 1.3.6 2.2.7 2.8l1.7 9.5-3.7.6-3.2-17.3zm51.9.9l-3.6 2.1-7.5-12.5-7 4.2-1.7-2.7 17.6-10.6 1.6 2.7-7 4.3zm6.6-27.5l11.6-14.1 2.3 1.9-8.9 10.9 3.1 2.5 5.2-6.3 2.3 1.9-5.2 6.3 3.4 2.8 9.1-11 2.5 2.2-11.6 14.2zm17.7-25.3l6.2-17.1 2.8 1-4.7 13.2 3.7 1.4 2.8-7.8 2.8 1.1-2.7 7.7 4.1 1.5 4.8-13.4 3.2 1.1-6.2 17.3zm8.3-29.7l-.2-11.4c-.1-6.7 3.1-10.2 8.6-10.3 3.3-.1 6.1 1.3 7.7 3.8 1.1 1.7 1.4 4.1 1.5 7.3l.2 10.4-17.8.2zm14.2-9.7c-.1-5.2-1.4-7.8-5.8-7.8-3.6.1-5.5 2.1-5.5 5.9l.1 7.3 11.3-.2-.1-5.2zM23.8 88.4c0-1.4 1.1-2.5 2.5-2.5s2.6 1.1 2.6 2.5-1.1 2.5-2.5 2.5c-1.5.1-2.6-1.1-2.6-2.5m192.1.2c0 1.4-1.1 2.5-2.5 2.5s-2.5-1.2-2.5-2.6c0-1.4 1.2-2.5 2.6-2.5 1.3 0 2.4 1.2 2.4 2.6M74.2 83.2V155h3.9v1.8H61.2V155h3.7V99.1l-8.6 13.4-2.1-1.7 18.1-28.4zm25.5 73.1c-3.5 1.9-10.8 2.2-14.7 0-6.1-3.6-5.6-10.1-5.6-15V98.9c0-4.9-.5-11.5 5.6-15 3.8-2.2 11.2-1.9 14.7 0 6.3 3.6 5.7 10.2 5.7 15v42.3c-.1 4.8.6 11.5-5.7 15.1M88.1 89.1v62c0 6.7 8.7 6.8 8.7 0v-62c0-6.7-8.7-6.7-8.7 0m42.7 67.2c-3.5 1.9-10.8 2.2-14.7 0-6.1-3.6-5.6-10.1-5.6-15V98.9c0-4.9-.5-11.5 5.6-15 3.8-2.2 11.2-1.9 14.7 0 6.3 3.6 5.7 10.2 5.7 15v42.3c0 4.8.6 11.5-5.7 15.1m-11.5-67.2v62c0 6.7 8.7 6.8 8.7 0v-62c-.1-6.7-8.7-6.7-8.7 0m54.4-5.3l-22.3 73h-2.2l22.4-73h2.1zm-17.4 36c-2.8 1.7-8.3 1.9-11.3 0-3.9-2.5-3.4-6.5-3.4-12.3V96.4c0-5.8-.4-9.9 3.4-12.3 3-1.9 8.5-1.8 11.3 0 3.8 2.4 3.4 6.5 3.4 12.2v11.3c.1 5.6.4 9.7-3.4 12.2m21.8 36.7c-2.9 1.7-8.4 1.8-11.3 0-4-2.5-3.4-6.5-3.4-12.3V133c0-5.7-.5-9.8 3.4-12.3 2.9-1.8 8.4-1.7 11.3 0 3.8 2.5 3.4 6.6 3.4 12.2v11.4c.1 5.6.4 9.8-3.4 12.2m-30-69.1v29.1c0 4.1 5.1 4.1 5.1 0V87.4c0-4.1-5.1-4.1-5.1 0m21.8 36.6v29.2c0 4.1 5.1 4.1 5.1 0V124c0-4-5.1-4-5.1 0m-58.1 53.6h5.4v1.2h-5.4zm-29.7-6.1h7.2v1.3h-5.6v1.5H87v1.3h-3.3v1.7h5.7v1.4h-7.3zm11.2 1.3v1.5h4.4c1.3 0 1.8.3 1.8 1.7v1c0 1.3-.4 1.7-1.8 1.7h-4.4c-1.3 0-1.8-.3-1.8-1.7v-.2l1.5-.3v.8h5v-1.6h-4.4c-1.3 0-1.8-.3-1.8-1.7v-.8c0-1.3.4-1.7 1.8-1.7h4c1.3 0 1.8.3 1.8 1.6v.2l-1.5.3v-.8h-4.6zm12.9 5.9h-1.6v-5.9h-3.3v-1.3h8.2v1.3h-3.3zm5.7-7h3.1c1.8 0 2.7.9 2.7 2.4 0 .9-.4 1.6-1.1 2.1-.5.3-1.1.4-2 .4h-2.8v-4.9zm2.6 3.9c1.4 0 2.1-.4 2.1-1.5 0-1-.5-1.5-1.6-1.5h-2v3h1.5zm12-2.7h-1.6v-1l3.1-.4v7.2h-1.5zm7.5 3.2c-2.2 0-3-.4-3-1.8v-1c0-1.2.8-1.7 2.4-1.7h3c1.8 0 2.3.5 2.3 2.2v.9c0 2.6-1.9 4.2-5.3 4.2h-.5l-1-1.2h.5c2.6 0 4.1-.3 4.7-1.8-1 .1-2 .2-3.1.2m3.2-1.8c0-1.3-.1-1.6-1.5-1.6h-2c-1 0-1.3.2-1.3.9v.4c0 .7.4.9 1.6.9.9 0 1.9-.1 3.1-.2.1-.1.1-.3.1-.4m4.4-2.8h6.2l-.1 1.2h-5l-.2 1.4c1.1-.1 2-.2 2.9-.2 2.3 0 3.5.8 3.5 2.4 0 1.7-1.3 2.4-3.9 2.4-1.5 0-2.7-.1-3.4-.3l-.4-1.4c1.3.2 2.5.4 3.8.4 1.7 0 2.4-.3 2.4-1.2 0-.8-.8-1.1-2.3-1.1-1 0-2.3.1-3.8.3l.3-3.9zm11.4 0h3.7c1.2 0 1.6.3 1.6 1.4v.5c0 .8-.2 1-.9 1.4l-4.2 2.5h4.1v-1.1l1.3.4v.6c0 1.1-.4 1.4-1.6 1.4h-6v-.6c0-.5.1-.8.9-1.3l4.9-3v-.9h-4.1v1.5l-1.4-.4v-.9c.1-1.2.5-1.5 1.7-1.5M80.7 63.3v1.5h4.4c1.3 0 1.8.3 1.8 1.7v1c0 1.3-.4 1.7-1.8 1.7h-4.4c-1.3 0-1.8-.3-1.8-1.7v-.2l1.5-.3v.8h5v-1.6H81c-1.3 0-1.8-.3-1.8-1.7v-.8c0-1.3.4-1.7 1.8-1.7h4c1.3 0 1.8.3 1.8 1.6v.2l-1.5.3v-.8h-4.6zm10.4 0v4.5h4.5v-1.5l1.7.3v.8c0 1.3-.4 1.7-1.8 1.7h-4.2c-1.3 0-1.8-.3-1.8-1.7v-3.8c0-1.3.4-1.7 1.8-1.7h4.2c1.3 0 1.8.3 1.8 1.7v.7l-1.7.3v-1.4h-4.5zm9.2-1.3h1.6v2.8h5.2V62h1.7v7.1h-1.7v-3h-5.2v3h-1.6zm10.8 0h1.7l1.8 4.8 1.9-4.8h1.2l1.9 4.8 1.7-4.8h1.5l-2.7 7.1H119l-2-4.9-2 4.9h-1.1zm16.4 0h1.6l4.1 7.1h-1.9l-.9-1.6h-4.5l-.8 1.6h-1.7l4.1-7.1zm2.2 4.3l-1.5-2.9-1.6 2.9h3.1zm5.7-4.3h1.1l5 4.2c.3.2.6.5.8.8 0-.6-.1-1-.1-1.2V62h1.5v7.1h-1.1l-5.2-4.4-.6-.6c.1.6.1.9.1 1.1v3.9h-1.5V62zm12.8 0c.3 0 .3.2.3.5V64l-1.4 2h-.8l1.2-2.1h-.8c-.3 0-.3-.2-.3-.5v-.9c0-.5.1-.5.6-.5h1.2zm4.1 1.3v1.5h4.4c1.3 0 1.8.3 1.8 1.7v1c0 1.3-.4 1.7-1.8 1.7h-4.4c-1.3 0-1.8-.3-1.8-1.7v-.2l1.5-.3v.8h5v-1.6h-4.4c-1.3 0-1.8-.3-1.8-1.7v-.8c0-1.3.4-1.7 1.8-1.7h4c1.3 0 1.8.3 1.8 1.6v.2l-1.5.3v-.8h-4.6zm12 1.8c.5.5.7 1.1.7 1.7 0 .7-.3 1.3-.7 1.7-.5.5-1.1.7-1.8.7s-1.3-.3-1.8-.7c-.5-.5-.7-1.1-.7-1.7 0-.7.3-1.3.8-1.8s1.1-.7 1.7-.7c.7.1 1.3.4 1.8.8m-.2.3c-.4-.4-.9-.6-1.5-.6s-1.1.2-1.5.6c-.4.4-.7 1-.7 1.5 0 .6.2 1.1.6 1.5.4.4 1 .6 1.5.6.6 0 1.1-.2 1.5-.6.4-.4.6-.9.6-1.5.1-.6-.1-1.1-.5-1.5m-.5.9c0 .4-.2.6-.6.7l.6 1.2h-.6l-.5-1.1h-.5v1.1h-.5v-2.5h1c.7-.1 1.1.1 1.1.6m-1.6-.4v.8h.4c.4 0 .6-.1.6-.4 0-.3-.2-.4-.7-.4h-.3z"/></svg>