<svg xmlns="http://www.w3.org/2000/svg" viewBox="0 0 269.6 269.6">
  <path fill="#FFF6DC" d="M265 100c19.2 71.9-23.5 145.7-95.4 164.9-72 19.3-145.8-23.5-165-95.4C-14.6 97.6 28.1 23.8 100 4.6c71.9-19.2 145.8 23.5 165 95.4z"/>
  <path fill="#B5121B" d="M134.8 263.8c-57 0-109.2-38.1-124.6-95.7C-8.1 99.4 32.8 28.6 101.5 10.3 170.2-8 241 32.9 259.4 101.6c8.9 33.3 4.3 68-13 97.8-17.3 29.8-45.1 51.1-78.4 60-11 3-22.2 4.4-33.2 4.4z"/>
  <path fill="#FFE8A8" d="M134.8 9.4c-10.7 0-21.5 1.4-32.3 4.3C35.6 31.5-4.3 100.4 13.6 167.2c17.8 66.8 86.7 106.7 153.6 88.9 32.4-8.6 59.5-29.4 76.3-58.4 16.8-29 21.3-62.8 12.6-95.2-15-56-65.9-93.1-121.3-93.1z"/>
  <path d="M248.1 92.6c-21.5-57.8-83.8-90.9-144.5-74.7-61 16.3-98.6 76.3-88 137.4l232.5-62.7zM26.8 189.3c25.2 50.1 82.9 77.4 139.2 62.3 56.5-15.1 93-67.8 89.6-124L26.8 189.3z" fill="#B5121B"/>
  <path fill="#FFF6DC" d="M250.6 103.9c17.1 64-20.9 129.7-84.9 146.7-64 17.1-129.7-20.9-146.7-84.9C1.9 101.7 39.9 36 103.9 19c63.9-17.1 129.6 20.9 146.7 84.9z"/>
  <path fill="#CFAB7A" d="M211.2 89.2L47.4 133v1.5l164.1-44"/>
  <path fill="#B5121B" d="M47.4 133c.4-39.1 27-72.8 64.8-82.9 37.7-10.1 77.6 6.2 97.6 39.5L201 92c-18-28-52.6-42.5-86.5-33.4-33.8 9-56.6 39-58.3 72.1l-8.8 2.3z"/>
  <path fill="#FFE293" d="M52.7 131.6c1.3-35.1 25.2-66.9 60.9-76.4 35.7-9.6 72.3 6 90.9 35.8l4.1-1.1c-19.8-32.7-59-48.6-96.1-38.7-37 9.9-63.2 43.3-64 81.5l4.2-1.1z"/>
  <path fill="#CFAB7A" d="M220.8 150.2L68.1 191.1l1.1 1.2 151.3-40.6"/>
  <path fill="#B5121B" d="M69.2 192.3c10.5 11.9 24.1 20.8 39.3 25.6 8.5 2.7 17.4 4.1 26.3 4.1 7.6 0 15.2-1 22.6-3 32.4-8.7 56.5-34.4 63.1-67.2l-9.6 2.6c-6.9 26.5-27.5 48.6-55.8 56.2-28.3 7.6-57.1-1.3-76.4-20.8l-9.5 2.5z"/>
  <path fill="#FFE293" d="M70.5 191.9c21.8 24.4 54.9 34.4 86.6 25.9 31.8-8.5 55.5-33.6 62.2-65.8l.6-.2-5.1 1.4c-6.7 28.5-28.5 52.5-58.8 60.6-30.2 8.1-61.1-1.8-81.1-23.1l.4-.1-4.8 1.3z"/>
  <path d="M79.8 228.8l-2.4-1.6 2-3.1-3.6-2.3-2 3.1-2.4-1.6 5.2-8 2.4 1.6-1.9 2.9 3.6 2.3 1.9-2.9 2.4 1.6-5.2 8zm18.3 3.5c-.4.8-.9 1.5-1.5 2-.7.5-1.5.8-2.4.9-.9.1-1.9-.1-3-.6s-1.9-1.1-2.5-1.8c-.6-.7-.9-1.5-.9-2.4-.1-.8.1-1.7.4-2.4.3-.8.8-1.4 1.5-2 .7-.5 1.5-.8 2.4-.9.9-.1 1.9.1 3 .6.8.4 1.5.8 2 1.3s.9 1.1 1.1 1.7c.2.6.3 1.2.3 1.8 0 .6-.1 1.2-.4 1.8zm-2.7-1.2c.1-.3.2-.6.2-1 0-.3 0-.6-.1-.9-.1-.3-.3-.5-.5-.8-.2-.2-.5-.4-.9-.6-.7-.3-1.3-.3-1.9-.1-.6.2-1 .7-1.3 1.3-.3.7-.3 1.3-.1 1.9.2.6.7 1 1.4 1.3.5.2.9.3 1.4.2.4 0 .8-.2 1.1-.5.3 0 .6-.4.7-.8zm18.6 10.6l-2.8-.7 1.3-5.3-3.3 2.5-.2-.1-1.7-3.7-1.3 5.3-2.7-.7 2.3-9.2 2.5.6 2 4.2 3.7-2.7 2.5.6-2.3 9.2zm15 1.8l-7.1-.6.8-9.5 7 .6-.2 1.9-4.2-.4-.2 1.7 4 .4-.2 1.9-4-.4-.2 2 4.3.4v2zm26.3-6.4c.1 1 .1 1.8-.2 2.4-.3.6-.6 1.2-1 1.6-.6.6-1.5 1-2.7 1.2h-.1l-4.9.7-1.4-9.4 3.9-.6c.6-.1 1.1-.1 1.5-.1.4 0 .8 0 1.2.1.4.1.7.1.9.2.3.1.5.2.7.3.4.2.7.5 1 .8.3.3.5.7.8 1.2.1.5.2 1 .3 1.6zm-2.9.3c-.1-.8-.3-1.3-.7-1.7-.4-.4-.7-.6-1.2-.7-.4-.1-.9-.1-1.3 0l-1.2.2.8 5.6 1.2-.2c.7-.1 1.4-.4 1.8-.8.6-.6.8-1.3.6-2.4zm17.6.4l-6.9 2.1-2.8-9.1 6.7-2 .6 1.8-4 1.2.5 1.7 3.8-1.2.6 1.8-3.8 1.2.6 1.9 4.1-1.2.6 1.8zm13.6-5.7l-6.6 3-3.9-8.6 2.6-1.2 3 6.6 4-1.8.9 2zm8.8-5.1l-2.4 1.5-4.9-8.1 2.4-1.5 4.9 8.1zm8.1-17.6l2.6 10.2-1.5 1.2-9.3-4.9 2.3-1.9 5.1 2.9-1.7-5.7 2.5-1.8zm15.8-2.5l-4.9 5.2-6.9-6.5 4.8-5.1 1.4 1.3-2.9 3 1.3 1.2 2.7-2.9 1.4 1.3-2.7 2.9 1.5 1.4 3-3.1 1.3 1.3zm10.2-13.4l-1.8 2.5-1.8-.4c-.7-.1-1.2-.2-1.5-.2-.4 0-.6.1-.8.2-.2.1-.4.3-.6.6l-.2.3 3 2.1-1.7 2.3-7.7-5.5 2.8-4c.5-.6 1-1.1 1.5-1.3.6-.2 1.1-.3 1.6-.2.5.1.9.2 1.3.5s.7.6.8.9c.2.3.2.6.2.9v.8c.3-.1.6-.2 1-.3.3 0 .9 0 1.7.2l2.2.6zm-7.6-.6c-.4-.3-.7-.3-1-.2-.3.1-.7.5-1 1l-.3.5 1.9 1.3.4-.5c.4-.6.6-1 .6-1.3-.1-.2-.2-.5-.6-.8zm6.6-17.6l2.9 5.7 3.9 2-1.3 2.5-3.8-2-6.4 1 1.4-2.6 3.7-.6-1.7-3.3 1.3-2.7zm-110-77c14.9-4.1 29.2-2 37.2 4.5.3-2.3-.2-6.3-3.1-11-2.9-4.6-7.9-7.4-11.9-10.2-4.3-3-11.1-9.8-10.3-11.3.8-1.6 7.8 1.3 9.5 2.3 1.7 1 5.7 3.5 5.9 3.1.2-.4-5.2-4.6-5.7-5.7-.5-1.1-.4-9.7-9-9.1-4.5.3-6.6 2.8-7.3 3.8-.6.9-4.6 8 3.6 16.3 3.3 3.3 12.3 9.1 14.2 10.8-6.8-2-16.9-1.5-24.8.7-15.2 4.2-25.9 15.9-27.8 27.9 4-9.4 15-18.1 29.5-22.1zM50.1 84.9l.7 2.6c-.5.6-1.1 1.2-1.7 1.8-.6.6-1.3 1.1-2 1.6-.6.4-1.1.7-1.5.8-.4.4-.9.7-1.5.9-.6.2-1.2.4-1.9.3-.7 0-1.4-.2-2.1-.6-.8-.4-1.4-.9-1.9-1.6-.5-.7-.7-1.5-.8-2.4 0-.9.2-1.9.8-3 .4-.8.9-1.5 1.4-1.9.6-.5 1.1-.8 1.7-1 .6-.2 1.2-.2 1.8-.2.6.1 1.2.3 1.8.5.7.3 1.2.8 1.6 1.3.4.5.7 1.1.8 1.6.2.6.2 1.2.2 1.8.4-.4.8-.7 1.2-1.1.4-.4.7-.9 1-1.5l.4.1zm-6.4.4c-.3-.2-.6-.3-.9-.3-.3 0-.6 0-.9.1-.3.1-.6.2-.8.5-.2.2-.5.5-.6.9-.4.7-.4 1.3-.2 1.9.2.6.6 1.1 1.3 1.4.6.3 1.3.4 1.9.2.6-.2 1.1-.6 1.4-1.3.2-.5.4-.9.3-1.3 0-.4-.1-.8-.4-1.1-.3-.5-.6-.7-1.1-1zm12.2-17.1c.6.5 1.1 1 1.4 1.6.3.6.4 1.2.3 1.8 0 .6-.2 1.2-.4 1.7s-.5 1.1-.9 1.5c-.5.6-1.1 1.2-1.8 1.6-.7.4-1.4.7-2.3.7-.8 0-1.7-.3-2.5-.9l-4-3.2 1.7-2.3 3.6 2.7c.5.4 1 .6 1.4.7.4.1.8.1 1.2-.1.3-.1.7-.4.9-.7.3-.3.4-.7.5-1.1 0-.4 0-.8-.2-1.1-.2-.4-.6-.8-1.1-1.2L50 67.3l1.7-2.3 4.2 3.2zm16-9.9l-2.2 2-1.9-.9-3 2.8.7 1.9-2.1 2-3.4-9.7 2.3-2.2 9.6 4.1zm-5.7.4l-3.4-1.6 1.3 3.5 2.1-1.9zm17.2-8.4l-6 4-5.3-7.9 2.4-1.6 4 6 3.6-2.4 1.3 1.9zm9-4.8l-2.6 1.3-4.2-8.5 2.6-1.3 4.2 8.5zm13.7-12.9l-3.3 1.1 2.3 6.8-2.7.9-2.3-6.8-3.3 1.1-.7-2.2 9.3-3.1.7 2.2zm17-5.7l-2.9 5.7.7 4.3-2.8.4-.7-4.2-4.6-4.5 2.9-.5 2.6 2.6 1.7-3.3 3.1-.5zm25.3 6l-3.9-.4-.4 3.8-2.9-.3.9-9.5 6.8.7-.2 1.9-3.9-.4-.2 1.8 3.9.4-.1 2zm18.1 3.1c-.2.9-.6 1.6-1.2 2.2-.6.6-1.3 1-2.2 1.2-.9.2-1.9.2-3-.1-1.1-.3-2-.8-2.7-1.4-.7-.7-1.1-1.4-1.3-2.2-.2-.8-.2-1.6 0-2.5.2-.8.6-1.5 1.2-2.2.6-.6 1.3-1 2.2-1.3.9-.2 1.9-.2 3.1.1.8.2 1.6.6 2.2 1 .6.4 1.1.9 1.4 1.5.3.5.5 1.1.6 1.8 0 .7-.1 1.3-.3 1.9zm-2.8-.7c.1-.3.1-.7.1-1 0-.3-.1-.6-.3-.9-.1-.3-.4-.5-.6-.7-.3-.2-.6-.3-1-.4-.7-.2-1.4-.1-1.9.2-.5.3-.9.8-1.1 1.5-.2.7-.1 1.3.2 1.9.3.5.8.9 1.6 1.1.5.1 1 .1 1.4 0 .4-.1.8-.3 1-.6.3-.3.5-.7.6-1.1zm19.8 7.9c-.4.8-.9 1.5-1.6 2-.7.5-1.5.8-2.4.8-.9.1-1.9-.2-3-.7-1.1-.5-1.9-1.1-2.4-1.9-.5-.8-.8-1.6-.9-2.4 0-.8.1-1.6.5-2.4.4-.8.9-1.4 1.5-1.9.7-.5 1.5-.8 2.4-.9.9-.1 1.9.2 3 .6.8.4 1.4.8 2 1.3.5.5.9 1.1 1.1 1.7.2.6.3 1.2.3 1.8-.1.8-.2 1.4-.5 2zm-2.7-1.2c.2-.3.2-.6.3-1 0-.3 0-.6-.1-.9-.1-.3-.3-.5-.5-.8-.2-.2-.5-.4-.9-.6-.7-.3-1.3-.4-1.9-.2-.6.2-1 .7-1.3 1.3-.3.7-.4 1.3-.1 1.9.2.6.7 1.1 1.3 1.4.5.2.9.3 1.3.3s.8-.2 1.1-.4c.4-.2.6-.6.8-1zm17.7 11.2c-.6.8-1.2 1.3-1.8 1.6-.6.3-1.2.4-1.8.5-.9 0-1.8-.3-2.8-1l-.1-.1-4.1-2.9 5.5-7.8 3.2 2.3c.5.3.9.7 1.2 1 .3.3.6.6.8.9.2.3.4.6.5.8.1.2.2.5.3.7.1.4.2.8.2 1.3 0 .4-.1.9-.2 1.4-.4.3-.6.8-.9 1.3zm-2.3-1.8c.4-.6.7-1.2.7-1.7s-.1-1-.4-1.3c-.3-.4-.6-.7-.9-.9l-1-.7-3.2 4.6 1 .7c.6.4 1.2.7 1.9.7.6-.1 1.2-.5 1.9-1.4zm-78.9 145.3c1.2-.3 1.4-.7 1.3-2.3l-.2-5.3c-.1-1.6-.3-1.8-1.5-1.5v-.3l6.7-1.8.2 2.1-.3.1-.1-.3c-.2-.8-.4-1.1-1.7-.8l-2.1.6.2 3.7.7-.2c1.4-.4 1.7-.6 1.6-2l.3-.1.2 3.7-.3.1c-.1-1.4-.3-1.5-1.8-1.1l-.7.2.1 2.4c.1 1.6.3 1.8 1.5 1.5l1.2-.3c1.3-.4 1.5-.8 1.6-1.7l.1-.3.3-.1v2.2l-7.2 1.9-.1-.4zm10.2-2.1c-1.2.3-1.9-.2-1.9-.6 0-.2.2-.4.4-.5.7-.2.3.9 1.6.5.6-.2.9-.7.8-1 0-.4-.5-.8-.8-.9l-.8-.4c-.5-.2-1-.7-1-1.2-.1-.7.5-1.6 1.7-2 1-.3 1.5.2 1.5.6 0 .2-.1.4-.3.4-.7.2-.3-.8-1.3-.5-.4.1-.8.5-.8.9s.3.6.8.9l.8.3c.6.2 1 .8 1 1.3.2 1.1-.7 2-1.7 2.2zm4.7-3.1c0 .8.3 1.1.7 1 .2-.1.6-.3 1-1l.1.4c-.4.7-1.1 1.2-1.5 1.3-.9.2-1.4-.2-1.5-1.5l-.1-3.3-1.2.3v-.6l1.2-.3-.1-2.6 1.1-.3.1 2.6 1.5-.4v.6l-1.5.4.2 3.4zm4.2.6c-.5.1-.9-.1-.9-.5s.4-.9.9-1c.5-.1.9.1.9.5s-.4.9-.9 1zm7.3-2.1v-.3c1.3-.3 1.5-.7 1.4-2.3l-.1-2.5c-.1-1.6-.5-1.7-1.9-1.3v-.3l3-1.3.2 5.1c.1 1.6.3 1.8 1.6 1.5v.3l-4.2 1.1zm9.9.4c-1.4.4-2.6 0-2.6-.6 0-.3.2-.5.4-.5.5-.1.8.9 2.1.6 1.9-.5 2.4-3.1 2.4-5.4-.4.6-1.1 1.3-2.1 1.5-1.9.5-3.6-.4-3.6-2.1-.1-1.7 1.4-3.5 3.3-4 1.3-.4 3.6-.1 3.7 3.6.2 2.9-.9 6.2-3.6 6.9zm.1-9.8c-1.5.4-2.1 1.8-2 3 .1 1.2.7 2.2 2.2 1.8 1-.3 1.9-1.1 2.1-1.8-.3-3.1-1.7-3.2-2.3-3zm9 .5c2-.5 3.4.6 3.5 2.5.1 1.9-1.6 3.9-3.5 4.4-1.8.5-3-.4-3-1.1 0-.2.1-.4.4-.5.7-.2.5 1.5 2.6.9 1.5-.4 2.2-1.8 2.2-3.4-.1-1.5-.6-2.6-2.2-2.2-.8.2-1.8.9-1.9 2.1l-.6.2.3-5.7 3-.8c1.6-.4 1.8-.8 2-1.8l.3-.1-.3 2.4-4.4 1.2-.1 3.1c.2-.5 1-1 1.7-1.2zm6.1 1.8l3.5-3.6c.9-.9 1.2-1.6 1.2-2.2-.1-1.2-1.2-1.4-2.2-1.1-.9.2-1.7 1.1-1.7 1.9 0 .3.1.6.4.9l-.5.6c-.7-.2-1.1-.7-1.1-1.2-.1-1.1 1-2.4 3-2.9 1.7-.5 3.3 0 3.4 1.3 0 1.3-1.5 2.7-1.5 2.7l-2.6 2.6 4.5-1.2-.4 2.4-.4.1c0-1.1-.4-1.2-2.3-.7l-3.3.9v-.5z" fill="#CFAB7A"/>
  <path fill="#B5121B" d="M252.4 54.8v.8h-1.6v4.1h-1v-4.1h-1.6v-.8h4.2zm5.3 4.9l-.2-2.9v-1.4c-.1.4-.3 1-.4 1.5l-.9 2.8h-1l-.9-2.8c-.1-.4-.2-1-.3-1.4h-.1v1.4l-.2 2.9h-.9l.4-5h1.5l.9 2.4c.1.4.2.7.3 1.3.1-.5.2-.9.3-1.2l.9-2.4h1.4l.4 5h-1.2z"/>
  <path d="M83.8 169.4c-.2-1.5-.6-2.7-.7-3-.2-.8-.6-1.4-1.2-1.7-.6-.4-1.3-.5-2.1-.3l-7.2 1.9.2.9c1.4 5.2-.2 6.4-1.9 6.9-3.5.9-4.4-1.9-4.5-2.2L62 155.7c-.3-1.1-.6-2.6.2-3.7.4-.7 1.4-1.4 2.3-1.6 3.1-.8 4 2 4.1 2.3.5 1.5 2.1 2.4 3.6 2l7.2-1.9-.3-.9c-1.1-3.6-2.9-8-7.2-9.8-3.6-1.5-7.5-.9-9.5-.4-9.2 2.5-12.9 8.9-10.4 18.1l3.3 12.5c1.1 4 4.1 8.9 6.4 10.2 1.6.9 3.4 1.3 5.5 1.3 1.8 0 3.8-.3 6.1-.9.9-.2 5.5-1.6 8-5 2.6-3.5 2.4-6.6 2.3-8.2l.2-.3zm23.6-35.9c-.2-.7-.7-1.4-1.3-1.8-.7-.4-1.5-.5-2.2-.3l-4.6 1.2c-.7.2-1.4.7-1.8 1.3-.4.7-.5 1.5-.3 2.2l2.8 10.4c.1.3 0 .6-.1.8-.1.2-.4.4-.6.5l-6.7 1.8c-.6.2-1.2-.2-1.3-.8l-2.8-10.4c-.4-1.5-2-2.5-3.6-2.1l-4.5 1.2c-1.5.4-2.5 2-2.1 3.5l9 33.7c.3 1.3 1.5 2.1 2.8 2.1.2 0 .5 0 .7-.1l4.6-1.2c.7-.2 1.4-.7 1.8-1.4.4-.7.5-1.5.3-2.2l-3.3-12.4c-.2-.6.2-1.2.8-1.3l6.8-1.8c.6-.1 1.2.2 1.3.8l3.3 12.4c.4 1.5 2 2.5 3.6 2l4.4-1.2c1.5-.4 2.5-2 2.1-3.5l-9.1-33.4zm46.5-14.5c-.6-.4-1.4-.6-2.1-.4l-3.5.9c-1.5.4-2.6 1.9-2.5 3.4l.7 17.1v.1c0 .4.1 2.1.2 3.8-.4-.7-.8-1.5-1.1-2.1l-.5-.9c-.5-.9-1-1.9-1.4-2.6l-6.9-13c-.7-1.4-2.4-2.1-3.9-1.7l-3.2.9c-1.5.4-2.6 1.9-2.5 3.4l.6 16.8v1.8c0 1.2 0 2 .1 2.2-.3-.6-1-1.8-1-1.8-.5-1-1.3-2.5-1.8-3.5l-6.8-13.2c-.7-1.3-2.4-2.1-3.9-1.7l-3.6 1c-.8.2-1.4.7-1.7 1.4-.3.7-.2 1.5.1 2.2l17.2 31.6c.6 1.1 1.9 1.8 3.1 1.8.3 0 .5 0 .8-.1l3.6-1c1.5-.4 2.6-1.9 2.5-3.4l-.5-17.5c0-.6-.1-2.2-.2-3.6.4.7.6 1.2.7 1.3.4.9 1.2 2.3 1.7 3.3l7.7 14.1c.7 1.3 2.5 2.1 3.9 1.7l3.6-1c1.5-.4 2.6-1.9 2.5-3.4l-1-35.9c.1-.8-.3-1.5-.9-2zm19.9-3.6c-.8-1.3-2.5-2-4-1.6l-6.1 1.6c-1.5.4-2.6 1.9-2.6 3.4l-.5 36.4c0 .8.3 1.5.9 2 .4.3.9.5 1.4.5.2 0 .5 0 .7-.1l4.2-1.1c1.4-.4 2.6-1.9 2.6-3.4v-4c0-.7.6-1.4 1.2-1.6l7.7-2c.6-.2 1.5.2 1.8.8l1.9 3.5c.7 1.3 2.5 2 3.9 1.7l4.2-1.1c.8-.2 1.4-.7 1.7-1.4.3-.7.2-1.5-.2-2.2l-18.8-31.4zm2.1 21.9c-.1.2-.2.3-.5.3l-4.6 1.2c-.2.1-.4 0-.6-.1s-.2-.3-.2-.5l-.3-12.8 6.1 11.2c.2.4.2.6.1.7zm83.2-18.6c-1.1-4.7-4.2-7.4-4.8-7.8-2.2-1.9-5.7-3.3-9.5-3.7l-6.2-.7c-3.4-.4-5.5-1-6.1-3.2-.2-1-.4-3.4 3.4-4.3 3.3-.8 6.3 1 7.9 2.8l.8.9.8-.9s3.3-3.5 4.1-4.4c1-1.1 1.4-2.1 1.3-3-.1-1.2-.9-2.2-2.6-3.3-4.4-2.8-9.1-3.5-14.5-2.2-4.7 1.1-8.3 3.4-10.5 6.6-2.1 3.1-2.8 6.9-1.8 10.9 2.3 9.5 9.4 11.2 17 12.2 7.7 1 8.7 1.3 9.3 3.9.3 1.4 0 2.6-.9 3.6-1.1 1.1-2.6 1.5-3.1 1.6-2.5.6-4.8 0-7-1.7-1-.8-3.1-2.5-5.9.6-2.1 2.3-4 4.3-4 4.3l-.7.7.7.7c4.4 4.7 8.4 6.4 12.9 6.4 2.1 0 4.4-.4 6.9-1 2.6-.6 6.2-2.3 8.6-4.6 6-5.8 4.4-12.2 3.9-14.4zM49.4 165.3c-2.2-1.9-5.7-3.2-9.5-3.7l-6.2-.7c-3.4-.4-5.5-1-6.1-3.2-.2-1-.4-3.4 3.4-4.3 3.3-.8 6.3 1 7.9 2.8l.8.9.8-.9s3.3-3.5 4.1-4.4c1-1.1 1.4-2.1 1.3-3.1-.1-1.2-.9-2.2-2.6-3.3-4.4-2.8-9.1-3.5-14.5-2.2-9.5 2.3-14.3 9.2-12.3 17.5 2.3 9.5 9.4 11.2 17 12.2 7.7 1 8.7 1.3 9.3 3.8.9 3.8-3.2 5-4 5.2-2.5.6-4.8 0-7-1.7-1-.8-3.1-2.5-5.9.6-2.1 2.3-4 4.3-4 4.3l-.7.7.7.7c4.4 4.7 8.4 6.4 12.9 6.4 2.1 0 4.4-.4 6.9-1s6.2-2.3 8.6-4.6c5.8-5.8 4.3-12.3 3.8-14.4-1.1-4.5-4.1-7.2-4.7-7.6zm164.4-59.9c.2 0 .3.1.5.1s.4 0 .5-.1l.3-.1c1-.3 2-1.3 2.2-2.3l1.1-5.1c.2-.9.1-2.3-.1-3.1l-1.3-4.4c-.3-1.1-1.5-1.7-2.6-1.4l-4.1 1.1c-.6.1-1 .5-1.3 1-.3.5-.3 1-.2 1.5l1.1 3.6c.3 1.1 1.5 1.7 2.6 1.4l-.1-.6.2.5c.2-.1.4 0 .5.1.1.1.1.3.1.4l-.5 5.5c-.1-.1-.2-.2-.4-.3-.7-.4-1.4-.5-2.2-.3l-3.7 1c-1.5.4-2.5 2-2.1 3.6 0 0 3.4 12.3 4.5 16.6l-14-14.6c-1-1-2.8-1.5-4.2-1.2l-4 1.1c-1.5.4-2.5 2-2.1 3.5l9 33.7c.2.7.7 1.4 1.3 1.8.5.3 1 .4 1.5.4.2 0 .5 0 .8-.1l3.7-1c1.5-.4 2.5-2 2-3.6l-4.2-15.7c-.1-.4-.1-.9-.1-1.3.3.1.8.5 1.7 1.6 1.4 1.7 10.1 10.6 12.9 12.8.9.7 2.3 1.9 4.3 1.4l2.9-.8c1.5-.4 2.5-2 2.1-3.6l-8.6-33.1z" fill="#CFAB7A"/>
  <path d="M82 168c-.2-1.6-.6-2.7-.7-3-.2-.8-.6-1.4-1.2-1.7-.6-.4-1.3-.4-2.1-.3l-6.4 1.7c-.5.1-.8.6-.6 1.1 1.4 5.2-.2 6.4-1.9 6.9-3.5.9-4.4-1.9-4.5-2.2l-4.3-16.2c-.3-1.2-.6-2.6.2-3.7.4-.7 1.4-1.4 2.3-1.6 3.1-.8 4.1 1.9 4.2 2.3.4 1.5 2.1 2.4 3.6 2l6.3-1.7c.2-.1.4-.2.6-.4.1-.2.1-.5.1-.7-1.1-3.6-2.9-8-7.1-9.8-3.6-1.5-7.5-.9-9.5-.3-4.6 1.2-7.8 3.4-9.6 6.6-1.8 3.1-2 7-.8 11.5l3.3 12.5c1.1 4.1 4.2 8.9 6.4 10.2 1.6.9 3.4 1.3 5.5 1.3 1.8 0 3.8-.3 6.1-.9 1.3-.3 5.6-1.7 8-5 2.6-3.5 2.4-6.6 2.3-8.3-.1-.2-.2-.3-.2-.3zm23.7-35.8c-.2-.7-.7-1.4-1.4-1.8-.7-.4-1.5-.5-2.2-.3l-4.6 1.2c-1.5.4-2.5 2-2.1 3.6l2.8 10.4c.1.6-.2 1.2-.8 1.3l-6.7 1.8c-.6.2-1.2-.2-1.3-.8l-2.8-10.4c-.2-.7-.7-1.4-1.3-1.8-.7-.4-1.5-.5-2.2-.3l-4.5 1.2c-.7.2-1.4.7-1.8 1.3s-.5 1.5-.3 2.2l9 33.7c.2.7.7 1.4 1.4 1.8.4.3.9.4 1.4.4.3 0 .5 0 .7-.1l4.6-1.2c1.5-.4 2.5-2 2.1-3.6l-3.3-12.4c-.1-.3 0-.6.1-.8.1-.2.4-.4.6-.5l6.8-1.8c.3-.1.6 0 .8.1.2.1.4.4.5.6l3.3 12.4c.4 1.5 2 2.5 3.5 2.1l4.4-1.2c.8-.2 1.4-.7 1.8-1.3.4-.7.5-1.5.3-2.2l-8.8-33.6zm46.5-14.5c-.6-.4-1.4-.6-2.2-.4l-3.5.9c-1.5.4-2.6 1.9-2.5 3.4l.7 17.1v.1c0 .3.1 2.1.2 3.9-.4-.7-.8-1.5-1.1-2.1l-8.7-16.5c-.7-1.4-2.4-2.1-3.9-1.7l-3.2.9c-1.5.4-2.6 1.9-2.5 3.4 0 0 .6 17.8.6 18.6 0 1.2 0 2 .1 2.3l-.9-1.8c-.5-1-8.6-16.7-8.6-16.7-.7-1.4-2.4-2.1-3.9-1.7l-3.6 1c-.8.2-1.4.7-1.7 1.4-.3.7-.2 1.5.1 2.2l17.2 31.6c.6 1.1 1.8 1.8 3.1 1.8.3 0 .5 0 .8-.1l3.6-1c1.5-.4 2.6-1.9 2.5-3.4l-.5-17.5c0-.6-.1-2.2-.2-3.6.4.7.6 1.2.7 1.3.5 1 9.4 17.3 9.4 17.3.7 1.3 2.5 2.1 3.9 1.7l3.6-1c1.5-.4 2.6-1.9 2.5-3.4l-1-35.9c0-.9-.4-1.7-1-2.1zm19.9-3.6c-.8-1.3-2.5-2-4-1.6l-6.1 1.6c-1.4.4-2.6 1.9-2.6 3.4l-.5 36.4c0 .8.3 1.5.9 2 .4.3.9.5 1.4.5.2 0 .5 0 .7-.1l4.2-1.1c1.5-.4 2.6-1.9 2.6-3.4v-4c0-.7.6-1.4 1.2-1.6l7.7-2c.7-.2 1.5.2 1.8.8l2 3.5c.7 1.3 2.5 2 3.9 1.7l4.2-1.1c.8-.2 1.4-.7 1.7-1.4.3-.7.2-1.5-.2-2.2l-18.9-31.4zm1.6 22.3l-4.6 1.2c-.2.1-.4 0-.6-.1-.1-.1-.2-.3-.2-.5l-.3-12.7 6.1 11.2c.1.2.1.4.1.6-.1.1-.2.2-.5.3zm83.4-19.2c-1.1-4.5-3.9-7.2-4.8-7.8-2.2-1.9-5.7-3.2-9.5-3.7l-6.2-.7c-3.4-.4-5.5-1-6.1-3.3-.1-.2-.3-1.4.4-2.4.5-.9 1.6-1.5 3.1-1.9 3.3-.8 6.3 1 7.9 2.8.2.2.5.4.8.4.3 0 .6-.1.8-.3 0 0 3.3-3.5 4.1-4.4 1-1.1 1.4-2.1 1.3-3-.1-1.2-.9-2.2-2.6-3.3-4.4-2.8-9.1-3.5-14.5-2.2-9.5 2.3-14.3 9.2-12.3 17.5 2.3 9.5 9.4 11.2 17 12.2 7.7 1 8.7 1.3 9.3 3.9.3 1.4 0 2.6-.9 3.6-1.1 1.1-2.6 1.5-3 1.6-2.5.6-4.8 0-7-1.7-1-.8-3.1-2.5-5.9.6-2.1 2.3-4 4.3-4 4.3-.4.4-.4 1 0 1.5 4.4 4.7 8.4 6.4 12.9 6.4 2.1 0 4.4-.4 6.9-1s6.2-2.3 8.6-4.6c5.8-5.9 4.2-12.4 3.7-14.5zM47.4 163.7c-2.2-1.9-5.7-3.2-9.5-3.7l-6.2-.7c-3.4-.4-5.5-1-6.1-3.2-.2-1-.4-3.4 3.4-4.3 3.3-.8 6.3 1 7.9 2.8.2.2.5.4.8.4.3 0 .6-.1.8-.3 0 0 3.3-3.5 4.1-4.4 1-1.1 1.4-2.1 1.3-3-.1-1.2-.9-2.2-2.6-3.3-4.4-2.7-9.1-3.4-14.5-2.2-4.7 1.1-8.3 3.4-10.5 6.6-2.1 3.1-2.8 6.9-1.8 10.9 2.3 9.5 9.4 11.2 17 12.2 7.7 1.1 8.7 1.3 9.3 3.9.9 3.9-3.5 5.1-4 5.2-2.5.6-4.9 0-7-1.7-1-.8-3.1-2.5-5.9.6-2.1 2.3-4 4.3-4 4.3-.4.4-.4 1 0 1.5 4.4 4.7 8.4 6.4 12.9 6.4 2.1 0 4.4-.4 6.9-1s6.2-2.3 8.6-4.6c5.9-5.8 4.3-12.3 3.8-14.4-1-4.9-4.1-7.5-4.7-8zm164.8-59.3c.3.2.6.3 1 .3.2 0 .4 0 .6-.1l.3-.1c1.2-.3 2.2-1.4 2.5-2.5l1.1-5.1c.2-.9.2-2.4-.1-3.3l-1.3-4.4c-.4-1.2-1.7-2-3-1.6l-4.1 1.1c-.6.2-1.2.6-1.5 1.1-.3.5-.4 1.2-.2 1.8l1.1 3.6c.4 1.2 1.7 2 3 1.6h.4v.1l-.5 5.6c-.2-.2-.4-.4-.7-.6-.7-.4-1.5-.5-2.2-.3l-3.7 1c-.7.2-1.4.7-1.8 1.3-.4.7-.5 1.5-.3 2.2 0 0 3.4 12.3 4.5 16.6l-13.9-14.6c-1-1-2.8-1.5-4.2-1.2l-4 1.1c-1.5.4-2.5 2-2.1 3.6l9 33.7c.2.8.7 1.4 1.4 1.8.4.3.9.4 1.4.4.3 0 .5 0 .8-.1l3.7-1c1.5-.4 2.5-2 2-3.6l-4.2-15.7c-.1-.4-.1-1-.1-1.3.3.1.8.5 1.7 1.6 1.4 1.7 10.1 10.6 12.9 12.8.9.7 2.3 1.9 4.4 1.4l2.9-.8c1.5-.4 2.5-2 2.1-3.6l-8.9-32.8z" fill="#FFF"/>
  <path d="M51.3 158.2c-2.3-8.6 1-14.7 9.8-17 2.2-.6 5.7-1 8.9.3 4.1 1.8 5.7 6.2 6.6 9.2l-6.3 1.7c-1.1.3-2.2-.3-2.5-1.4 0 0-1.2-4-5.3-2.9-1 .3-2.2 1-2.8 2-1 1.6-.6 3.4-.3 4.5l3.3 12.3c.3 1.1.7 2.8 1 3.8 0 0 1.1 4.1 5.6 2.9 3.4-.9 3.7-3.9 2.6-8l6.4-1.7c1.1-.3 1.9.3 2.2 1.4 0 0 .5 1.2.6 2.8.1 1.6.3 4.4-2.1 7.7-2.1 2.9-5.9 4.3-7.5 4.7-4.3 1.2-7.9 1.3-10.8-.3-1.9-1.1-4.9-5.5-6-9.6l-3.4-12.4zm26.2-18.5c-.3-1.1.4-2.1 1.4-2.4l4.5-1.2c1.1-.3 2.1.3 2.4 1.4l2.8 10.4c.3 1.1 1.4 1.7 2.4 1.4l6.7-1.8c1-.3 1.7-1.4 1.4-2.4l-2.8-10.4c-.3-1.1.4-2.1 1.4-2.4l4.6-1.2c1.1-.3 2.1.3 2.4 1.4l9 33.7c.3 1.1-.3 2.2-1.4 2.4l-4.5 1.2c-1 .3-2.1-.4-2.4-1.4l-3.3-12.4c-.3-1.1-1.4-1.7-2.4-1.4l-6.8 1.8c-1.1.3-1.7 1.4-1.4 2.4l3.3 12.4c.3 1.1-.4 2.1-1.4 2.4l-4.6 1.2c-1.1.3-2.1-.4-2.4-1.4l-8.9-33.7zm35.4-11.5c1.1-.3 2.3.3 2.8 1.3l6.8 13.2c.5 1 1.3 2.6 1.9 3.5 0 0 .7 1.3.9 1.8l.8 1.7c.5 1 .9 1.8 1 1.8.1 0 .1-.9 0-2 0 0-.1-1.3-.1-1.9-.1-.6-.1-3.5-.1-4.1l-.6-16.8c0-1.1.8-2.2 1.8-2.5l3.2-.9c1.1-.3 2.3.3 2.8 1.3l6.9 13c.5 1 1.3 2.6 1.9 3.5 0 0 2.6 5.1 2.8 5.3.1 0 .1-.9.1-2 0 0-.3-5.5-.3-5.6l-.7-17.1c0-1.1.8-2.2 1.8-2.5l3.5-.9c1.1-.3 1.9.4 2 1.5l1 35.9c0 1.1-.8 2.2-1.9 2.5l-3.6 1c-1.1.3-2.3-.3-2.9-1.2l-7.5-13.8c-.5-1-1.4-2.5-1.9-3.5l-2.4-4.8c-.1 0-.2.9-.1 2 0 0 .2 4.4.3 5.5l.5 17.5c0 1.1-.8 2.2-1.9 2.5l-3.6 1c-1.1.3-2.3-.3-2.9-1.2L108 131.6c-.5-1-.1-2 1-2.3l3.9-1.1zm55.5-14.8c1.1-.3 2.4.3 2.9 1.2l18.8 31.2c.6.9.2 1.9-.9 2.2l-4.2 1.1c-1.1.3-2.4-.3-2.9-1.2l-2-3.5c-.5-1-1.8-1.5-2.9-1.2l-7.7 2c-1.1.3-1.9 1.4-1.9 2.5v4c0 1.1-.8 2.2-1.9 2.5l-4.2 1.1c-1.1.3-1.9-.4-1.9-1.5l.5-36.4c0-1.1.9-2.2 1.9-2.5l6.4-1.5zm-.2 9.2c-.5-1-1-1.7-1.1-1.7-.1 0-.1.9-.1 2l.3 14.1c0 1.1.9 1.8 2 1.5l4.6-1.2c1.1-.3 1.5-1.3 1-2.2l-6.7-12.5zm78.7-27.5c-.8.9-4.1 4.4-4.1 4.4-2.1-2.4-5.5-4-9-3.1-5.1 1.2-4.3 5.1-4.2 5.6.8 3.2 4 3.8 7 4.1l6.2.7c2.9.3 6.5 1.4 8.9 3.4.7.6 3.4 3.1 4.4 7.3.5 2 1.9 8-3.5 13.4-2.2 2.2-5.8 3.8-8.1 4.3-7.9 1.9-13 1.1-18.8-5.1 0 0 1.9-2 4-4.3s3.4-1.4 4.5-.5c2.3 1.8 5 2.6 7.9 1.9 2.1-.5 5.8-2.4 4.8-6.5-.8-3.4-2.8-3.7-10.2-4.7-7.4-1-14-2.6-16.1-11.4-1.8-7.4 2.3-14 11.5-16.2 5.2-1.3 9.6-.5 13.7 2 2.4 1.6 2.7 2.9 1.1 4.7zM17.7 163.9c-.9-1.3-1.6-3-2.1-5-1.8-7.4 2.3-14 11.5-16.2 5.2-1.3 9.6-.5 13.7 2 2.4 1.6 2.7 3 1.1 4.7-.8.9-4.1 4.4-4.1 4.4-2.1-2.3-5.5-4-9-3.1-5.1 1.2-4.3 5.1-4.2 5.6.8 3.2 4 3.7 7 4.1l6.2.7c2.9.3 6.5 1.4 8.9 3.4.7.6 3.4 3.1 4.4 7.3.5 2 1.9 8-3.5 13.4-2.2 2.2-5.8 3.8-8.1 4.3-7.9 1.9-13 1.1-18.8-5.1 0 0 1.9-2 4-4.3s3.3-1.4 4.4-.5c2.3 1.9 5 2.6 7.9 1.9 2.1-.5 5.8-2.4 4.8-6.5-.8-3.4-2.8-3.7-10.2-4.7-5.6-.7-10.8-1.8-13.9-6.4m191-61.4l-3.7 1c-1.1.3-1.7 1.4-1.4 2.4l4.9 18c.5 1.8-.2 1.3-.7.7l-15.1-15.8c-.8-.8-2.2-1.2-3.3-.9l-4 1.1c-1.1.3-1.7 1.4-1.4 2.4l9 33.7c.3 1.1 1.4 1.7 2.4 1.4l3.7-1c1.1-.3 1.7-1.4 1.4-2.4l-4.2-15.7c-.3-1-.5-4.8 3.2-.5 1.5 1.7 10 10.5 12.8 12.7.8.7 2 1.6 3.5 1.2l2.9-.8c1.1-.3 1.7-1.4 1.4-2.4l-9-33.7c-.3-1-1.4-1.7-2.4-1.4zm2.6-6.6c-.8.2-1.7-.2-1.9-1l-1.1-3.6c-.2-.8.3-1.6 1.1-1.8l4.1-1.1c.8-.2 1.7.2 1.9 1l1.3 4.4c.2.8.3 2.1.1 2.9l-1.1 5.1c-.2.8-1 1.6-1.8 1.8l-.3.1c-.8.2-1.4-.3-1.4-1.1l.5-5.7c.1-.7-.5-1.2-1.4-1z" fill="#B5121B"/>
</svg>
