<?xml version="1.0" encoding="utf-8"?>
<!-- Generator: Adobe Illustrator 18.0.0, SVG Export Plug-In . SVG Version: 6.00 Build 0)  -->
<!DOCTYPE svg PUBLIC "-//W3C//DTD SVG 1.1//EN" "http://www.w3.org/Graphics/SVG/1.1/DTD/svg11.dtd">
<svg version="1.1" id="Layer_1" xmlns="http://www.w3.org/2000/svg" xmlns:xlink="http://www.w3.org/1999/xlink" x="0px" y="0px"
	 width="611.8px" height="55.9px" viewBox="0 0 611.8 55.9" enable-background="new 0 0 611.8 55.9" xml:space="preserve">
<g>
	<g>
		<polygon points="238.2,6.5 230.7,26.4 225.4,26.4 232.9,6.5 		"/>
		<path d="M24.1,19.3c-2.1-4.3-3.9-7.5-9.2-7.5c-2.8,0-7.1,1.8-7.1,6s3.5,6,5,6.4l9.2,4.3c1.4,0.7,5,2.5,6.7,6
			c0.7,1.1,1.4,2.8,1.4,6c0,4.3-1.4,7.8-4.6,10.3C21.6,54,18,54,15.6,54c-2.8,0-7.5-1.1-10.6-3.5c-2.8-2.5-3.9-4.6-5-7.1l5.3-3.5
			c1.4,3.5,4.3,8.2,10.6,8.2c3.9,0,8.2-2.5,8.2-7.5c0-2.1-0.7-5-5.7-7.1L10.2,30c-2.8-1.4-6-3.5-7.5-6c-0.4-0.7-1.1-2.8-1.1-6
			c0-7.1,6-11.7,13.1-11.7s12.1,3.5,14.9,9.6L24.1,19.3z"/>
		<path d="M56.6,20.3c-0.4-4.6-2.5-8.5-7.5-8.5c-4.6,0-6.4,3.5-7.5,6c-1.8,4.3-1.8,10.6-1.8,11c0,9.9,1.8,19.9,9.2,19.9
			c3.5,0,5.3-2.5,6-3.5c1.4-2.1,1.4-4.6,1.8-6.4l6.4,1.1c-0.4,3.5-1.4,7.5-4.3,10.3c-3.9,3.9-8.5,3.9-10.3,3.9
			c-3.9,0-14.9-1.8-14.9-24.1c0-10.6,2.8-23.8,15.6-23.8c2.8,0,6.7,0.7,9.6,3.9c3.2,3.2,3.9,6.7,3.9,8.9L56.6,20.3z"/>
		<polygon points="68.4,7.2 74.7,7.2 74.7,26.4 91.1,26.4 91.1,7.2 97.5,7.2 97.5,52.9 91.1,52.9 91.1,32 74.7,32 74.7,52.9 
			68.4,52.9 		"/>
		<path d="M125.9,7.2h5.3l4.6,19.2c1.4,6,1.8,7.5,3.9,17.4c0.4,1.8,0.4,2.5,0.7,2.5c0.4,0,0.4-0.4,0.4-0.4c0-0.4,0.4-1.4,0.4-1.8
			c1.8-10.6,2.1-11.7,3.9-18.8l4.3-18.1h5.7l-11.4,45.7H137l-4.3-17c-0.4-1.8-0.7-3.2-1.1-4.3c0-0.7-0.7-3.2-0.7-3.9l-1.8-8.9
			c-0.4-1.1-0.4-2.1-0.4-2.8c0-0.4-0.4-0.4-0.4-0.4s-0.4,0-0.4,0.4l-0.4,2.8c-1.1,5.7-1.8,10.6-3.2,16.3L120,52.8h-6.7L101.2,7.1h6
			l5,19.9c0.4,1.4,1.8,8.9,2.5,11.7c0.4,1.8,1.1,5.7,1.1,6.4c0,0.4,0.4,0.7,0.7,0.7c0.4,0,0.7-0.4,0.7-1.4c0.4-2.1,1.4-7.5,1.8-10.3
			c0.4-1.8,1.4-5.3,1.8-7.5L125.9,7.2z"/>
		<path d="M175.5,38l-7.1-23.4c0,0,0-0.4-0.4-0.4s-0.4,0.4-0.4,0.4L160.9,38H175.5z M177.6,43.3h-18.1l-3.2,9.6h-6.7l14.9-45.7h7.1
			l15.6,45.7h-6.7L177.6,43.3z"/>
		<path d="M190.7,7.2h8.2L212,36.7l1.8,4.6c0.4,0.7,1.8,4.6,1.8,5.3h0.4c0.4-0.4,0.4-0.4,0.4-1.1s-0.4-3.9-0.4-4.6
			c0-2.8,0-5.3,0-6.7v-27h5.3v45.7h-8.2l-13.5-29.8c-1.8-3.9-3.5-8.9-3.5-9.6h-0.4c-0.4,0.4-0.4,0.4-0.4,0.7c0,1.4,0.4,8.2,0.4,8.5
			v30.5h-5.3v-46L190.7,7.2L190.7,7.2z"/>
		<path d="M262.7,19.3c-2.1-4.3-4.3-7.5-9.6-7.5c-2.8,0-7.1,1.8-7.1,6s3.5,6,5,6.4l9.2,4.3c1.4,0.7,5,2.5,6.7,6
			c0.7,1.1,1.4,2.8,1.4,6c0,4.3-1.4,7.8-4.6,10.3c-3.9,3.2-7.5,3.2-9.9,3.2c-2.8,0-7.5-1.1-10.6-3.5c-2.8-2.5-3.9-4.6-5-7.1l5.3-3.5
			c1.4,3.5,4.3,8.2,10.6,8.2c3.9,0,8.2-2.5,8.2-7.5c0-2.1-0.7-5-5.7-7.1l-8.2-3.5c-2.8-1.4-6-3.5-7.5-6c-0.7-1.1-1.4-3.2-1.4-6.4
			c0-7.1,6-11.7,13.1-11.7c7.1,0,12.1,3.5,14.9,9.6L262.7,19.3z"/>
	</g>
	<g>
		<path fill="#B4111A" d="M597,4.7h-2.8V3.6h7.1v1.1h-2.8v8.5h-1.4L597,4.7L597,4.7z"/>
		<path fill="#B4111A" d="M610.2,9c0-1.4,0-2.8,0-4.3l0,0c-0.4,1.1-0.7,2.5-1.1,3.5l-1.8,4.6h-1.1l-1.4-4.6
			c-0.4-1.4-0.7-2.5-1.1-3.5l0,0c0,1.1,0,2.8-0.4,4.3l-0.4,4.3h-1.1l0.7-9.6h1.4l1.8,4.6c0.4,1.1,0.7,2.1,1.1,3.2l0,0
			c0.4-1.1,0.7-2.1,1.1-3.2l1.8-4.6h1.4l0.7,9.6h-1.1L610.2,9z"/>
	</g>
	<g>
		<path fill="#B4111A" d="M338.6,53.3c-1.8-3.5-3.2-6.7-4.6-9.6c-3.5-7.8-5.7-12.1-8.9-14.6c5.3-2.8,8.2-7.5,8.2-13.1
			c0-7.8-6.4-16-18.1-16h-24.5v54.6h14.9V33.3h2.8c5,0,7.1,5.3,10.3,12.8c1.1,2.5,2.1,5.3,3.5,8.2l0.4,0.4h16.3L338.6,53.3z
			 M318,16.8c0,4.6-3.9,5-6.4,5h-6V11.5h5.7C315.8,11.5,318,13.2,318,16.8z"/>
		<path fill="#B4111A" d="M379,37.6c0.4-6.4-1.4-11.7-5.3-15.6c-3.5-3.5-8.5-5.7-14.2-5.7c-11.4,0-19.5,8.2-19.5,19.5
			c0,11.7,8.5,19.2,21.7,19.2c2.8,0,9.9,0,16.3-5l0.4-0.4v-9.2l-1.4,1.1c-5,3.5-8.5,5-12.8,5c-6,0-9.9-2.8-10.6-8.2h25.6L379,37.6z
			 M353.8,30.9c0.7-3.9,3.2-6,6.7-6s6,2.1,6.7,6H353.8z"/>
		<polygon fill="#B4111A" points="427.9,17.2 421.2,35.2 413.7,17.2 405.6,17.2 398.5,35.2 391.5,17.2 378,17.2 394.9,55.4 
			401.3,55.4 409.8,36.9 418,55.4 424.7,55.4 441.4,17.2 		"/>
		<path fill="#B4111A" d="M480.5,44c-2.5,1.8-3.2,1.8-3.9,1.8c-0.4,0-1.1,0-1.1-1.4V28.1c0-5.3-2.8-11.7-16-11.7
			c-5.7,0-11,1.4-16,4.6v0.4v11.7l1.4-1.4c3.5-3.5,8.2-5.7,12.4-5.7c2.1,0,3.5,0.4,4.3,1.4c0.7,0.7,1.1,1.8,1.1,3.2L462,31
			c-14.2,4.3-20.6,6.4-20.6,15.3c0,5.3,5,9.6,11,9.6c3.9,0,7.5-1.1,11.4-3.5c1.1,2.5,3.2,3.5,6.7,3.5c3.2,0,7.8-1.4,11-3.5l0.4-0.4
			v-8.5L480.5,44z M462.7,37.6v7.1c-1.8,1.4-3.5,2.1-5.3,2.1c-1.4,0-2.8-1.4-2.8-2.8C454.9,41.2,457,39.8,462.7,37.6z"/>
		<path fill="#B4111A" d="M516.6,20c-3.5-2.5-5.7-3.5-7.8-3.5c-3.9,0-7.5,2.8-10.6,8.2v-7.5h-13.1v37.6h13.1v-16
			c2.5-6.7,5-9.6,8.2-9.6c1.4,0,3.5,0.7,6,2.5l1.1,0.7l3.5-11.7L516.6,20z"/>
		<path fill="#B4111A" d="M542.8,0.1v18.1c-2.8-1.1-5.7-1.8-8.5-1.8c-10.6,0-18.1,7.8-18.1,19.5c0,11,7.5,19.5,17.7,19.5
			c3.5,0,6.4-0.7,8.9-2.8v2.1h13.1V0.1H542.8L542.8,0.1z M542.8,27.4v16.4c-2.1,1.8-3.5,2.5-5.7,2.5c-4.6,0-7.8-3.9-7.8-9.9
			c0-6.7,2.8-10.3,8.2-10.3C539.3,25.7,541.4,26.4,542.8,27.4z"/>
		<path fill="#B4111A" d="M578.6,29.5c-2.1-1.1-5-1.8-5-2.8c0-0.4,0-1.8,3.2-1.8c2.1,0,6.7,0.7,11.4,3.9l1.4,0.7v-9.9l-0.4-0.4
			c-3.9-1.8-7.5-2.8-12.1-2.8c-9.2,0-15.6,4.6-15.6,11.7c0,7.5,7.1,10.3,12.1,12.4c2.8,1.1,5.7,2.1,5.7,3.5c0,1.1-1.8,1.8-4.6,1.8
			c-3.9,0-7.1-1.4-11.4-2.8l-1-0.4v9.9l0.4,0.4c1.8,1.1,7.5,2.8,13.1,2.8c9.9,0,15.3-4.6,15.3-12.4
			C591.4,34.4,583.6,31.6,578.6,29.5z"/>
	</g>
</g>
</svg>
